<?xml version="1.0" encoding="UTF-8"?>
<svg xmlns="http://www.w3.org/2000/svg" xmlns:xlink="http://www.w3.org/1999/xlink" width="4000" height="2500" viewBox="0 0 4000 2500">
<defs>
<clipPath id="clip-0">
<path clip-rule="nonzero" d="M 0 0 L 4000 0 L 4000 1318.730469 L 0 1318.730469 Z M 0 0 "/>
</clipPath>
<linearGradient id="linear-pattern-0" gradientUnits="userSpaceOnUse" x1="0.338518" y1="0" x2="1.14442" y2="0" gradientTransform="matrix(0, 1636.34, -1636.34, 0, 2000, -553.93)">
<stop offset="0" stop-color="rgb(93.049622%, 62.785339%, 95.205688%)" stop-opacity="1"/>
<stop offset="0.0078125" stop-color="rgb(93.025208%, 62.968445%, 95.201111%)" stop-opacity="1"/>
<stop offset="0.015625" stop-color="rgb(92.976379%, 63.33313%, 95.193481%)" stop-opacity="1"/>
<stop offset="0.0234375" stop-color="rgb(92.927551%, 63.699341%, 95.184326%)" stop-opacity="1"/>
<stop offset="0.03125" stop-color="rgb(92.877197%, 64.064026%, 95.175171%)" stop-opacity="1"/>
<stop offset="0.0390625" stop-color="rgb(92.828369%, 64.430237%, 95.166016%)" stop-opacity="1"/>
<stop offset="0.046875" stop-color="rgb(92.779541%, 64.794922%, 95.15686%)" stop-opacity="1"/>
<stop offset="0.0546875" stop-color="rgb(92.730713%, 65.161133%, 95.147705%)" stop-opacity="1"/>
<stop offset="0.0625" stop-color="rgb(92.681885%, 65.525818%, 95.140076%)" stop-opacity="1"/>
<stop offset="0.0703125" stop-color="rgb(92.633057%, 65.892029%, 95.13092%)" stop-opacity="1"/>
<stop offset="0.078125" stop-color="rgb(92.584229%, 66.256714%, 95.121765%)" stop-opacity="1"/>
<stop offset="0.0859375" stop-color="rgb(92.5354%, 66.622925%, 95.11261%)" stop-opacity="1"/>
<stop offset="0.09375" stop-color="rgb(92.485046%, 66.98761%, 95.103455%)" stop-opacity="1"/>
<stop offset="0.101563" stop-color="rgb(92.436218%, 67.353821%, 95.094299%)" stop-opacity="1"/>
<stop offset="0.109375" stop-color="rgb(92.38739%, 67.718506%, 95.085144%)" stop-opacity="1"/>
<stop offset="0.117188" stop-color="rgb(92.338562%, 68.084717%, 95.077515%)" stop-opacity="1"/>
<stop offset="0.125" stop-color="rgb(92.289734%, 68.449402%, 95.068359%)" stop-opacity="1"/>
<stop offset="0.132812" stop-color="rgb(92.240906%, 68.815613%, 95.059204%)" stop-opacity="1"/>
<stop offset="0.140625" stop-color="rgb(92.192078%, 69.180298%, 95.050049%)" stop-opacity="1"/>
<stop offset="0.148438" stop-color="rgb(92.14325%, 69.546509%, 95.040894%)" stop-opacity="1"/>
<stop offset="0.15625" stop-color="rgb(92.092896%, 69.911194%, 95.031738%)" stop-opacity="1"/>
<stop offset="0.164063" stop-color="rgb(92.044067%, 70.277405%, 95.024109%)" stop-opacity="1"/>
<stop offset="0.171875" stop-color="rgb(91.995239%, 70.64209%, 95.014954%)" stop-opacity="1"/>
<stop offset="0.179688" stop-color="rgb(91.946411%, 71.008301%, 95.005798%)" stop-opacity="1"/>
<stop offset="0.1875" stop-color="rgb(91.897583%, 71.372986%, 94.996643%)" stop-opacity="1"/>
<stop offset="0.195313" stop-color="rgb(91.848755%, 71.739197%, 94.987488%)" stop-opacity="1"/>
<stop offset="0.203125" stop-color="rgb(91.799927%, 72.103882%, 94.978333%)" stop-opacity="1"/>
<stop offset="0.210937" stop-color="rgb(91.751099%, 72.470093%, 94.970703%)" stop-opacity="1"/>
<stop offset="0.21875" stop-color="rgb(91.700745%, 72.834778%, 94.961548%)" stop-opacity="1"/>
<stop offset="0.226563" stop-color="rgb(91.651917%, 73.200989%, 94.952393%)" stop-opacity="1"/>
<stop offset="0.234375" stop-color="rgb(91.603088%, 73.565674%, 94.943237%)" stop-opacity="1"/>
<stop offset="0.242188" stop-color="rgb(91.55426%, 73.931885%, 94.934082%)" stop-opacity="1"/>
<stop offset="0.25" stop-color="rgb(91.505432%, 74.29657%, 94.924927%)" stop-opacity="1"/>
<stop offset="0.257812" stop-color="rgb(91.456604%, 74.662781%, 94.915771%)" stop-opacity="1"/>
<stop offset="0.265625" stop-color="rgb(91.407776%, 75.027466%, 94.908142%)" stop-opacity="1"/>
<stop offset="0.273438" stop-color="rgb(91.397095%, 75.372314%, 94.902039%)" stop-opacity="1"/>
<stop offset="0.28125" stop-color="rgb(91.435242%, 75.688171%, 94.900513%)" stop-opacity="1"/>
<stop offset="0.289063" stop-color="rgb(91.48407%, 75.997925%, 94.900513%)" stop-opacity="1"/>
<stop offset="0.296875" stop-color="rgb(91.534424%, 76.307678%, 94.900513%)" stop-opacity="1"/>
<stop offset="0.304687" stop-color="rgb(91.583252%, 76.617432%, 94.900513%)" stop-opacity="1"/>
<stop offset="0.3125" stop-color="rgb(91.63208%, 76.927185%, 94.900513%)" stop-opacity="1"/>
<stop offset="0.320313" stop-color="rgb(91.682434%, 77.236938%, 94.900513%)" stop-opacity="1"/>
<stop offset="0.328125" stop-color="rgb(91.731262%, 77.546692%, 94.900513%)" stop-opacity="1"/>
<stop offset="0.335938" stop-color="rgb(91.781616%, 77.856445%, 94.900513%)" stop-opacity="1"/>
<stop offset="0.34375" stop-color="rgb(91.830444%, 78.166199%, 94.900513%)" stop-opacity="1"/>
<stop offset="0.351562" stop-color="rgb(91.880798%, 78.475952%, 94.900513%)" stop-opacity="1"/>
<stop offset="0.359375" stop-color="rgb(91.929626%, 78.785706%, 94.900513%)" stop-opacity="1"/>
<stop offset="0.367188" stop-color="rgb(91.97998%, 79.095459%, 94.900513%)" stop-opacity="1"/>
<stop offset="0.375" stop-color="rgb(92.028809%, 79.405212%, 94.900513%)" stop-opacity="1"/>
<stop offset="0.382813" stop-color="rgb(92.079163%, 79.714966%, 94.900513%)" stop-opacity="1"/>
<stop offset="0.390625" stop-color="rgb(92.127991%, 80.024719%, 94.900513%)" stop-opacity="1"/>
<stop offset="0.398437" stop-color="rgb(92.178345%, 80.334473%, 94.900513%)" stop-opacity="1"/>
<stop offset="0.40625" stop-color="rgb(92.227173%, 80.644226%, 94.900513%)" stop-opacity="1"/>
<stop offset="0.414063" stop-color="rgb(92.277527%, 80.953979%, 94.900513%)" stop-opacity="1"/>
<stop offset="0.421875" stop-color="rgb(92.326355%, 81.263733%, 94.900513%)" stop-opacity="1"/>
<stop offset="0.429688" stop-color="rgb(92.376709%, 81.573486%, 94.900513%)" stop-opacity="1"/>
<stop offset="0.4375" stop-color="rgb(92.425537%, 81.88324%, 94.900513%)" stop-opacity="1"/>
<stop offset="0.445312" stop-color="rgb(92.475891%, 82.192993%, 94.900513%)" stop-opacity="1"/>
<stop offset="0.453125" stop-color="rgb(92.524719%, 82.502747%, 94.900513%)" stop-opacity="1"/>
<stop offset="0.460938" stop-color="rgb(92.575073%, 82.8125%, 94.900513%)" stop-opacity="1"/>
<stop offset="0.46875" stop-color="rgb(92.623901%, 83.122253%, 94.900513%)" stop-opacity="1"/>
<stop offset="0.476563" stop-color="rgb(92.674255%, 83.432007%, 94.900513%)" stop-opacity="1"/>
<stop offset="0.484375" stop-color="rgb(92.723083%, 83.74176%, 94.900513%)" stop-opacity="1"/>
<stop offset="0.492188" stop-color="rgb(92.773438%, 84.051514%, 94.900513%)" stop-opacity="1"/>
<stop offset="0.5" stop-color="rgb(92.822266%, 84.361267%, 94.900513%)" stop-opacity="1"/>
<stop offset="0.507813" stop-color="rgb(92.87262%, 84.671021%, 94.900513%)" stop-opacity="1"/>
<stop offset="0.515625" stop-color="rgb(92.921448%, 84.980774%, 94.900513%)" stop-opacity="1"/>
<stop offset="0.523438" stop-color="rgb(92.971802%, 85.290527%, 94.900513%)" stop-opacity="1"/>
<stop offset="0.53125" stop-color="rgb(93.02063%, 85.600281%, 94.900513%)" stop-opacity="1"/>
<stop offset="0.539062" stop-color="rgb(93.070984%, 85.910034%, 94.900513%)" stop-opacity="1"/>
<stop offset="0.546875" stop-color="rgb(93.119812%, 86.219788%, 94.900513%)" stop-opacity="1"/>
<stop offset="0.554688" stop-color="rgb(93.16864%, 86.529541%, 94.900513%)" stop-opacity="1"/>
<stop offset="0.5625" stop-color="rgb(93.218994%, 86.839294%, 94.900513%)" stop-opacity="1"/>
<stop offset="0.570313" stop-color="rgb(93.267822%, 87.149048%, 94.900513%)" stop-opacity="1"/>
<stop offset="0.578125" stop-color="rgb(93.318176%, 87.458801%, 94.900513%)" stop-opacity="1"/>
<stop offset="0.585938" stop-color="rgb(93.367004%, 87.768555%, 94.900513%)" stop-opacity="1"/>
<stop offset="0.59375" stop-color="rgb(93.417358%, 88.078308%, 94.900513%)" stop-opacity="1"/>
<stop offset="0.601563" stop-color="rgb(93.466187%, 88.388062%, 94.900513%)" stop-opacity="1"/>
<stop offset="0.609375" stop-color="rgb(93.516541%, 88.697815%, 94.900513%)" stop-opacity="1"/>
<stop offset="0.617188" stop-color="rgb(93.565369%, 89.009094%, 94.900513%)" stop-opacity="1"/>
<stop offset="0.625" stop-color="rgb(93.615723%, 89.318848%, 94.900513%)" stop-opacity="1"/>
<stop offset="0.632812" stop-color="rgb(93.664551%, 89.628601%, 94.900513%)" stop-opacity="1"/>
<stop offset="0.640625" stop-color="rgb(93.714905%, 89.938354%, 94.900513%)" stop-opacity="1"/>
<stop offset="0.648438" stop-color="rgb(93.763733%, 90.248108%, 94.900513%)" stop-opacity="1"/>
<stop offset="0.65625" stop-color="rgb(93.814087%, 90.557861%, 94.900513%)" stop-opacity="1"/>
<stop offset="0.664062" stop-color="rgb(93.862915%, 90.867615%, 94.900513%)" stop-opacity="1"/>
<stop offset="0.671875" stop-color="rgb(93.913269%, 91.177368%, 94.900513%)" stop-opacity="1"/>
<stop offset="0.679687" stop-color="rgb(93.962097%, 91.487122%, 94.900513%)" stop-opacity="1"/>
<stop offset="0.6875" stop-color="rgb(94.012451%, 91.796875%, 94.900513%)" stop-opacity="1"/>
<stop offset="0.695313" stop-color="rgb(94.061279%, 92.106628%, 94.900513%)" stop-opacity="1"/>
<stop offset="0.703125" stop-color="rgb(94.111633%, 92.416382%, 94.900513%)" stop-opacity="1"/>
<stop offset="0.710938" stop-color="rgb(94.160461%, 92.726135%, 94.900513%)" stop-opacity="1"/>
<stop offset="0.71875" stop-color="rgb(94.210815%, 93.035889%, 94.900513%)" stop-opacity="1"/>
<stop offset="0.726562" stop-color="rgb(94.259644%, 93.345642%, 94.900513%)" stop-opacity="1"/>
<stop offset="0.734375" stop-color="rgb(94.309998%, 93.655396%, 94.900513%)" stop-opacity="1"/>
<stop offset="0.742188" stop-color="rgb(94.358826%, 93.965149%, 94.900513%)" stop-opacity="1"/>
<stop offset="0.75" stop-color="rgb(94.40918%, 94.274902%, 94.900513%)" stop-opacity="1"/>
<stop offset="0.757812" stop-color="rgb(94.458008%, 94.584656%, 94.900513%)" stop-opacity="1"/>
<stop offset="0.765625" stop-color="rgb(94.496155%, 94.819641%, 94.900513%)" stop-opacity="1"/>
<stop offset="0.78125" stop-color="rgb(94.508362%, 94.900513%, 94.900513%)" stop-opacity="1"/>
<stop offset="0.8125" stop-color="rgb(94.508362%, 94.900513%, 94.900513%)" stop-opacity="1"/>
<stop offset="0.875" stop-color="rgb(94.508362%, 94.900513%, 94.900513%)" stop-opacity="1"/>
<stop offset="1" stop-color="rgb(94.508362%, 94.900513%, 94.900513%)" stop-opacity="1"/>
</linearGradient>
</defs>
<rect x="-400" y="-250" width="4800" height="3000" fill="rgb(100%, 100%, 100%)" fill-opacity="1"/>
<g clip-path="url(#clip-0)">
<path fill-rule="nonzero" fill="url(#linear-pattern-0)" d="M 4000 0 L 0 0 L 0 1318.730469 L 4000 1318.730469 Z M 4000 0 "/>
</g>
<path fill-rule="nonzero" fill="rgb(72.068787%, 70.117188%, 94.921875%)" fill-opacity="1" d="M 4000 1086.878906 L 4000 2500 L 807.488281 2500 C 808.351562 2465.550781 809.238281 2430.941406 809.980469 2396.28125 C 813.339844 2239.191406 813.648438 2080.570312 793.839844 1926.730469 C 781.769531 1832.941406 732.421875 1668.039062 780.679688 1598.230469 C 824.808594 1534.378906 960.890625 1515.261719 1016.121094 1487.609375 C 1061.128906 1465.089844 1105.949219 1440.800781 1150.691406 1415.640625 C 1209.699219 1382.449219 1268.550781 1347.75 1327.460938 1313.519531 C 1359.628906 1294.828125 1391.820312 1276.289062 1424.050781 1258.21875 C 1493.980469 1219.019531 1564.140625 1182.03125 1634.871094 1150.628906 C 1727.03125 1109.71875 2090.199219 1098.558594 1874.25 1207.839844 C 1830.070312 1230.199219 2125.839844 1250.070312 3070.949219 1069.800781 C 3183.410156 1048.339844 3380.628906 1068.421875 3488.289062 1094.269531 C 3595.671875 1120.050781 3661.25 1026.628906 3758.46875 1003.941406 C 3826.160156 988.148438 3900.339844 1059.078125 3965.898438 1077.769531 C 3977.078125 1080.960938 3988.449219 1083.988281 4000 1086.878906 "/>
<path fill-rule="nonzero" fill="rgb(58.789062%, 52.146912%, 86.71875%)" fill-opacity="1" d="M 3747.089844 2499.460938 C 3747.070312 2499.640625 3747.058594 2499.820312 3747.039062 2500 L 0 2500 L 0 941.089844 C 159.71875 895.378906 217.574219 943.308594 380.335938 955.03125 C 456.816406 960.539062 663.394531 1012.761719 732.105469 971.808594 C 832.765625 911.820312 1046.398438 1042.730469 1154.871094 1035.558594 C 1360.488281 1021.988281 1341.601562 1068.179688 1542.140625 1079.179688 C 1648.101562 1085 1735.640625 1057.988281 1835.820312 1112.160156 C 1878.460938 1135.210938 1955.019531 1131.289062 2000 1148.679688 C 2068.589844 1175.210938 2094.929688 1175.25 2165.109375 1186.589844 C 2270.28125 1203.589844 2376.859375 1222.25 2483.191406 1245.609375 C 2685.769531 1290.148438 2887.449219 1351.769531 3076.890625 1451.628906 C 3149.941406 1490.128906 3220.550781 1535.898438 3291.660156 1580.46875 C 3330.738281 1604.96875 3369.980469 1629.109375 3409.851562 1651.480469 C 3424.140625 1659.5 3437.988281 1668.488281 3451.328125 1678.449219 C 3513.378906 1724.710938 3564.390625 1791.898438 3597.871094 1880.179688 C 3624.921875 1951.5 3644.980469 2032.921875 3665.691406 2110.589844 C 3670.738281 2129.488281 3675.820312 2148.191406 3681.050781 2166.449219 C 3711.289062 2271.988281 3757.140625 2382.261719 3747.089844 2499.460938 "/>
<path fill-rule="nonzero" fill="rgb(43.138123%, 33.325195%, 70.506287%)" fill-opacity="1" d="M 4000 1259.589844 L 4000 2500 L 0 2500 L 0 1713.75 C 40.390625 1702.699219 79.011719 1693.691406 103.121094 1683.378906 C 322.96875 1589.328125 538.828125 1461.601562 759.929688 1377.710938 C 843.480469 1346.019531 928.179688 1347.101562 1013.800781 1348.089844 C 1028.449219 1348.261719 1043.121094 1348.429688 1057.820312 1348.429688 C 1086.050781 1348.429688 1113.828125 1346.359375 1141.371094 1343.308594 C 1210.898438 1335.601562 1278.941406 1321.609375 1349.058594 1318.820312 C 1374.050781 1317.820312 1399.050781 1317.03125 1424.050781 1316.398438 C 1654.199219 1310.628906 1884.800781 1319.191406 2114.371094 1318.820312 C 2216.71875 1318.660156 2329.339844 1349.308594 2429.121094 1309.53125 C 2448.121094 1301.949219 2466.011719 1296.789062 2483.191406 1293.539062 C 2566.261719 1277.871094 2632.679688 1307.148438 2727.378906 1326.578125 C 2841.359375 1349.96875 2910.96875 1265.230469 3014.179688 1244.648438 C 3086.03125 1230.320312 3164.78125 1294.660156 3234.371094 1311.621094 C 3422.261719 1357.390625 3661.019531 1368.421875 3850.128906 1328.25 C 3902.308594 1317.160156 3951.351562 1287.539062 4000 1259.589844 "/>
<path fill-rule="nonzero" fill="rgb(28.637695%, 21.556091%, 53.709412%)" fill-opacity="1" d="M 4000 1632.160156 L 4000 2500 L 0 2500 L 0 1318.730469 C 52.371094 1326.738281 155.519531 1207.039062 550.78125 1207.070312 C 552.191406 1207.070312 553.601562 1207.121094 555 1207.160156 C 656.808594 1209.289062 751.539062 1230.351562 846.699219 1258.140625 C 906.929688 1275.738281 967.339844 1296.03125 1029.820312 1315.949219 C 1066.898438 1327.769531 1104.109375 1336.429688 1141.371094 1343.308594 C 1203.339844 1354.75 1265.460938 1361.25 1327.460938 1369.109375 C 1382.230469 1376.050781 1436.890625 1384.039062 1491.269531 1397.441406 C 1767.789062 1465.539062 2046.929688 1574.761719 2328.851562 1574.789062 C 2451.609375 1574.800781 2572 1559.011719 2694.351562 1569.160156 C 2842.199219 1581.421875 2988.941406 1611.121094 3137.410156 1610.789062 C 3189.011719 1610.679688 3240.390625 1612.640625 3291.660156 1615.601562 C 3397.101562 1621.671875 3502.058594 1631.910156 3607.511719 1636.839844 C 3643.378906 1638.519531 3679.308594 1639.578125 3715.339844 1639.660156 C 3810.269531 1639.859375 3905.121094 1635.988281 4000 1632.160156 "/>
<path fill-rule="nonzero" fill="rgb(20.384216%, 12.547302%, 41.967773%)" fill-opacity="1" d="M 4000 1495.261719 L 4000 2500 L 578.878906 2500 C 655.671875 2464.78125 733.289062 2432.238281 809.980469 2401.140625 C 843.960938 2387.359375 877.75 2373.871094 911.210938 2360.550781 C 1017.050781 2318.421875 1151.671875 2284.53125 1233.871094 2176.511719 C 1273.261719 2124.738281 1295.371094 2091.929688 1347.980469 2065.28125 C 1539.25 1968.390625 1741.449219 1976.488281 1941.359375 1963.550781 C 1987.328125 1960.570312 2033.078125 1958.25 2078.710938 1956.429688 C 2204.519531 1951.390625 2329.511719 1950.179688 2456.238281 1949.75 C 2746.921875 1948.769531 3018.628906 1791.769531 3306.730469 1749.480469 C 3358.578125 1741.871094 3405.691406 1727.78125 3451.328125 1709.839844 C 3503.671875 1689.269531 3554.078125 1663.621094 3607.511719 1636.839844 C 3625.960938 1627.589844 3644.761719 1618.199219 3664.128906 1608.839844 C 3770.949219 1557.21875 3885.628906 1515.878906 4000 1495.261719 "/>
<path fill-rule="nonzero" fill="rgb(15.281677%, 5.883789%, 33.714294%)" fill-opacity="1" d="M 4000 2115.359375 L 4000 2500 L 0 2500 L 0 1639.738281 C 43.53125 1613.371094 88.191406 1587.851562 134.46875 1565.890625 C 423.625 1428.648438 1073.941406 1659.050781 1247.441406 1710.851562 C 1404.070312 1757.640625 1934.621094 1859.140625 2076.039062 1954.640625 C 2076.929688 1955.238281 2077.820312 1955.839844 2078.710938 1956.429688 C 2276.121094 2089 2499.140625 2156.378906 2717.199219 2159.140625 C 2954.988281 2162.148438 3179.710938 2196.710938 3415.769531 2155.789062 C 3495.941406 2141.898438 3580.191406 2132.011719 3665.691406 2125.46875 C 3777.089844 2116.929688 3890.621094 2114.058594 4000 2115.359375 "/>
<path fill-rule="nonzero" fill="rgb(8.227539%, 1.177979%, 25.87738%)" fill-opacity="1" d="M 3232.980469 2500 L 0 2500 L 0 1946.890625 C 33.128906 1936.25 66.878906 1927.078125 101.949219 1921.019531 C 178.949219 1907.699219 258.179688 1905.460938 335.5 1893.578125 C 430.660156 1878.960938 522.238281 1860.511719 617.648438 1884.929688 C 727.558594 1913.070312 829.519531 1962.300781 938.21875 1991.839844 C 1036.929688 2018.679688 1140.308594 2088.789062 1241.289062 2095.558594 C 1306.761719 2099.949219 1367.648438 2089.921875 1433.898438 2100.699219 C 1503.378906 2112.011719 1573.300781 2118.921875 1642.589844 2130.621094 C 1788.320312 2155.21875 1934.691406 2171.640625 2079.25 2202.429688 C 2203.328125 2228.859375 2325.96875 2259.929688 2450.921875 2283.390625 C 2650.019531 2320.761719 2852.839844 2371.839844 3045.421875 2434.738281 C 3108.390625 2455.308594 3170.78125 2477.398438 3232.980469 2500 "/>
</svg>
